<!DOCTYPE svg PUBLIC "-//W3C//DTD SVG 1.1//EN" "http://www.w3.org/Graphics/SVG/1.1/DTD/svg11.dtd">

<!-- Uploaded to: SVG Repo, www.svgrepo.com, Transformed by: SVG Repo Mixer Tools -->
<svg fill="none" height="800px" width="800px" version="1.1" id="Layer_1" xmlns="http://www.w3.org/2000/svg" xmlns:xlink="http://www.w3.org/1999/xlink" viewBox="0 0 472.615 472.615" xml:space="preserve" stroke="#000000">

<g id="SVGRepo_bgCarrier" stroke-width="0"/>

<g id="SVGRepo_tracerCarrier" stroke-linecap="round" stroke-linejoin="round" stroke="#CCCCCC" stroke-width="22.68552"> <g> <g> <polygon points="354.462,5.804 354.462,88.586 437.337,88.592 "/> </g> </g> <g> <g> <polygon points="68.923,433.23 68.923,49.231 29.538,49.231 29.538,472.615 393.846,472.615 393.846,433.23 "/> </g> </g> <g> <g> <path d="M334.769,108.278V0H88.615v413.538h354.462V108.285L334.769,108.278z M226.46,196.897v-128h59.077v128h39.385 l-68.923,68.923l-68.923-68.923H226.46z M374.154,295.355c0,21.721-17.663,39.385-39.385,39.385H177.231 c-21.722,0-39.385-17.664-39.385-39.385v-78.769h19.692v78.769c0,10.855,8.837,19.692,19.692,19.692h157.538 c10.855,0,19.692-8.837,19.692-19.692v-78.769h19.692V295.355z" fill="white"/> </g> </g> </g>

<g id="SVGRepo_iconCarrier"> <g> <g> <polygon points="354.462,5.804 354.462,88.586 437.337,88.592 "/> </g> </g> <g> <g> <polygon points="68.923,433.23 68.923,49.231 29.538,49.231 29.538,472.615 393.846,472.615 393.846,433.23 "/> </g> </g> <g> <g> <path d="M334.769,108.278V0H88.615v413.538h354.462V108.285L334.769,108.278z M226.46,196.897v-128h59.077v128h39.385 l-68.923,68.923l-68.923-68.923H226.46z M374.154,295.355c0,21.721-17.663,39.385-39.385,39.385H177.231 c-21.722,0-39.385-17.664-39.385-39.385v-78.769h19.692v78.769c0,10.855,8.837,19.692,19.692,19.692h157.538 c10.855,0,19.692-8.837,19.692-19.692v-78.769h19.692V295.355z" fill="white"/> </g> </g> </g>

</svg>